<svg viewBox="28.352788309999994 45.29477577049181 131.8079 122.88098360655738" xmlns="http://www.w3.org/2000/svg" style="max-height: 500px" width="131.8079" height="122.88098360655738"><path d="M32.2 48.8c0-.7.5-1.2 1.2-1.2h9c.7 0 1.2.5 1.2 1.2v100.7c0 .7-.5 1.2-1.2 1.2h-9c-.7 0-1.2-.5-1.2-1.2zm22.9 0c0-.7.5-1.2 1.2-1.2h9c.7 0 1.2.5 1.2 1.2v100.7c0 .7-.5 1.2-1.2 1.2h-9c-.7 0-1.2-.5-1.2-1.2zm22.9 0c0-.7.5-1.2 1.2-1.2h9c.7 0 1.2.5 1.2 1.2v100.7c0 .7-.5 1.2-1.2 1.2h-9c-.7 0-1.2-.5-1.2-1.2zm22.9 0c0-.7.5-1.2 1.2-1.2h9c.7 0 1.2.5 1.2 1.2v100.7c0 .7-.5 1.2-1.2 1.2h-9c-.7 0-1.2-.5-1.2-1.2zm22.9 40.1c0-.7.5-1.2 1.2-1.2h9c.7 0 1.2.5 1.2 1.2v20.5c0 .7-.5 1.2-1.2 1.2h-9c-.7 0-1.2-.5-1.2-1.2zm71.4-13.2c-3.2 0-6.1.6-8.7 1.7s-4.8 2.7-6.6 4.9-3.1 4.9-4.1 8c-.9 3.1-1.4 6.6-1.4 10.5s.8 9.6 2.3 13.4c1.5 3.7 3.8 6.6 6.9 8.6s6.9 3 11.5 3 5.5-.2 8.1-.7 5.3-1.3 8-2.1v8.5c-2.6 1-5.2 1.7-7.9 2.1-2.7.5-5.8.7-9.3.7-6.7 0-12.2-1.4-16.7-4.1-4.4-2.7-7.7-6.7-9.9-11.7-2.2-5.1-3.3-11-3.3-17.8s.7-9.5 2-13.6c1.4-4.2 3.4-7.7 6-10.7s5.9-5.3 9.7-6.9c3.9-1.6 8.4-2.5 13.5-2.5s6.5.4 9.7 1.1 6 1.6 8.6 2.9l-3.7 8.2c-2.1-1-4.5-1.8-7-2.6-2.3-.5-4.9-.9-7.7-.9m38.7 57.8h-9.7V63.9h9.7zm21.3-49.4v49.4h-9.7V84.1zm-4.7-18.7c1.5 0 2.7.4 3.8 1.3s1.6 2.3 1.6 4.3-.5 3.4-1.6 4.3-2.4 1.3-3.8 1.3-2.9-.4-4-1.3c-1-.9-1.6-2.4-1.6-4.3s.5-3.5 1.6-4.3c1-.9 2.4-1.3 4-1.3m38 69c-4.5 0-8.5-.9-11.9-2.7s-6.1-4.5-8-8.2c-1.9-3.8-2.8-8.6-2.8-14.4s1-11.1 3-14.8c2.1-3.8 4.9-6.6 8.3-8.3 3.5-1.8 7.6-2.7 12.1-2.7s5.3.3 7.7.9c2.4.5 4.5 1.2 6 1.9L300 94c-1.7-.7-3.5-1.3-5.5-1.7-1.9-.5-3.7-.7-5.4-.7-3.1 0-5.6.7-7.6 2s-3.4 3.2-4.4 5.9c-.9 2.6-1.4 5.8-1.4 9.7s.5 6.9 1.5 9.4c1 2.6 2.4 4.5 4.3 5.9 2 1.3 4.4 1.9 7.2 1.9s5.2-.3 7.2-.9c2.1-.6 4-1.4 5.9-2.4v8.4c-1.8 1-3.7 1.8-5.8 2.3-1.9.4-4.5.6-7.5.6m32.7-28.7c.7-.7 21.1-21.6 21.1-21.6h11.3l-19.9 21.2 21.2 28.2h-11.5l-16.3-22.1-5.7 4.8v17.3h-9.6V63.9h9.6zm93.9 27.8h-9.9v-29.9H374v29.9h-9.9V68.1h9.9v27.1h31.2V68.1h9.9zm55.3-24.7c0 4.1-.6 7.7-1.6 10.9-1.1 3.2-2.7 5.9-4.7 8.1s-4.5 3.9-7.3 5c-2.9 1.1-6.1 1.6-9.7 1.6s-6.4-.5-9.2-1.6c-2.8-1.2-5.3-2.8-7.3-5s-3.6-4.9-4.8-8.1-1.7-6.8-1.7-11 .9-10 2.7-13.8c1.9-3.8 4.6-6.7 8.1-8.6 3.5-2 7.7-3 12.5-3s8.5 1 11.9 3c3.5 2 6.2 4.8 8.2 8.6 1.9 3.7 2.9 8.4 2.9 13.9m-36.4 0c0 3.7.5 6.8 1.4 9.5.9 2.6 2.4 4.6 4.3 6q3 2.1 7.5 2.1c4.5 0 5.6-.7 7.5-2.1 2-1.4 3.4-3.4 4.3-6 .9-2.7 1.4-5.9 1.4-9.5s-.5-7-1.5-9.5c-.9-2.6-2.4-4.5-4.3-5.9s-4.4-2.1-7.5-2.1c-4.6 0-7.9 1.5-10 4.6-2.1 3-3.1 7.3-3.1 12.9m88.1-24.7v49.4h-7.8L513 127h-.5c-1 1.7-2.4 3.1-4 4.2a18 18 0 0 1-5.4 2.4c-2 .5-4 .8-6 .8-3.8 0-7.1-.6-9.8-1.8-2.6-1.3-4.6-3.2-6-5.9-1.3-2.7-2-6.1-2-10.3V84.1h9.8V115c0 3.8.8 6.7 2.4 8.6s4.2 2.8 7.6 2.8 6.1-.7 8.1-2 3.3-3.3 4.1-5.9c.9-2.6 1.3-5.8 1.3-9.4v-25zm44.4 35.5c0 3.2-.8 6-2.4 8.2s-3.9 3.9-6.9 5-6.6 1.6-10.8 1.6-6.5-.3-9-.8c-2.4-.5-4.7-1.2-6.8-2.2v-8.5c2.2 1 4.7 2 7.6 2.8q4.35 1.2 8.4 1.2c4.05 0 6.3-.6 7.9-1.7 1.6-1.2 2.5-2.7 2.5-4.7s-.3-2.1-.9-2.9c-.6-.9-1.8-1.8-3.5-2.7-1.7-1-4.1-2.1-7.3-3.3-3.1-1.3-5.8-2.5-8-3.8s-3.9-2.8-5-4.5c-1.2-1.8-1.7-4-1.7-6.8 0-4.3 1.7-7.5 5.1-9.8 3.5-2.3 8.1-3.5 13.7-3.5s5.8.3 8.4.9c2.7.5 5.3 1.4 7.8 2.6l-3.2 7.4c-1.4-.7-2.9-1.2-4.4-1.6q-2.25-.75-4.5-1.2c-1.5-.3-3-.5-4.6-.5-2.9 0-5.2.5-6.7 1.4s-2.3 2.2-2.3 3.8.3 2.2 1 3c.7.9 2 1.7 3.8 2.6s4.2 1.9 7.2 3.1q4.65 1.8 7.8 3.6c2.2 1.2 3.8 2.7 4.9 4.5 1.3 1.8 1.9 4.1 1.9 6.8m29.7-36.4c4.3 0 8.1.9 11.2 2.7s5.5 4.3 7.1 7.7c1.7 3.4 2.6 7.3 2.6 11.9v5.3h-33.2c0 5.1 1.4 8.9 3.9 11.6 2.6 2.7 6.1 4 10.7 4s6-.3 8.4-.8c2.5-.6 5.1-1.5 7.7-2.7v8.1c-2.4 1.1-4.9 1.9-7.5 2.5-2.5.5-5.5.8-9 .8s-9-.9-12.6-2.8c-3.7-1.9-6.5-4.7-8.6-8.4-2-3.8-3-8.4-3-13.9s.9-10.3 2.7-14.1c1.9-3.8 4.5-6.8 7.8-8.8 3.4-2 7.4-3.1 11.8-3.1m0 7.5c-3.5 0-6.3 1.1-8.4 3.4s-3.3 5.5-3.7 9.6h23.3c0-2.6-.4-4.8-1.2-6.8s-2-3.5-3.7-4.6c-1.6-1-3.7-1.6-6.3-1.6" fill="#fff"/></svg>